<svg xmlns="http://www.w3.org/2000/svg" width="867" height="722"><defs><clipPath id="a"><path d="M-587-185H602v990H-587v-990z"/></clipPath><clipPath id="b"><path d="M-572-535H618v990H-572v-990z"/></clipPath><clipPath id="c"><path d="M-213-225H977v990H-213v-990z"/></clipPath></defs><g fill="none"><g transform="translate(374 -1)" clip-path="url(#a)"><path fill="#373535" d="M176 341v3l2-1h-4l-1 2 3-1h-2l2 1 2-1c1-1 2-3 1-4l-3 1M106 225c-9 3-19 1-27 0-10-2-18-4-27-8-5-2-11-3-16 1-3 2-7 8-5 12 1 1 3 0 2-1-1-4 3-8 5-10 4-4 10-1 15 1l17 5c12 3 25 5 36 2 2-1 1-3 0-2"/><path fill="#373535" d="M106 226c9 3-3 8-7 9-5 1-9 0-14-1-8-1-16-4-24-7-12-4-22-6-32 3h2c11-9 21-4 33 0l25 7c5 0 12 0 17-3 4-2 9-7 2-9-1-1-3 0-2 1M210 204l-38 23c-4 2-5 2-6 6-2 4 0 5 3 5 5 0 10-4 14-6l22-14c10-6 21-9 32-9h15c5 0 8 3 12 3 1 0 3-1 1-1l-9-3-11-1-22 2c-15 4-26 13-39 20l-12 7c-1 0-3 2-4 0-1-1 0-6 2-7l6-3 36-21c2-1-1-1-2-1M212 206c16 1 32-2 48 3 1 0 3-1 2-2-16-5-33-2-49-3-1 0-3 2-1 2M131 341l-3-1c-1 0-3 1-2 2 3 3 6 4 9 3 2 0 2-2 0-2-3 1-5-1-7-2l-1 2h3c2 0 3-2 1-2M139 266c3 20 5 40 4 60l3-1v-14l-3 1v16l3-1v-2l-3 1v2l3-1v-16l-3 1v14l3-1c0-20-1-40-5-59h-2"/><path fill="#373535" d="M130 342c6 1 11 4 16 8 3 2 7 5 11 5l6-2 5-5 4-4 6-3h2v-1c1 0 0 0 0 0v-1h-2l-8 5c-4 3-9 11-15 9-8-3-13-11-22-12-1-1-4 1-3 1M158 359c2 2 1 5 1 7l2-1-3-1c-1-1-3 0-3 1l5 2 2-1c0-3 1-6-2-8-1-1-3 1-2 1M358 325c12 33 2 69-11 100l-18 40-12 23-10 15c-12 13-27 24-42 35l-26 20c-7 5-14 10-21 13h1c6-2 12-6 18-10l27-20c15-12 31-24 45-37 8-8 13-20 18-30l20-44c13-30 24-64 16-98l-2-7h-3"/><path fill="#373535" d="M298 281c9 17 14 36 13 56-1 10-4 19-8 28-3 9-6 18-11 26l-17 32-46 92-1 2-8 6-10 7c-17 11-35 13-54 9v1c11-7 18-17 22-30 2-6 3-11-1-16-4-7-10-14-16-21-6-8-14-20-26-15-13 5-16 19-15 32l2-1-39-25c-11-9-15-27-20-40-9-30-14-64-1-93 1-2-2-2-2-1-13 30-9 62 0 92 4 14 8 30 18 41 5 5 12 9 18 12l24 15c1 1 3 1 3-1-1-11 1-23 12-29 12-6 24 14 30 22l10 13c4 6 1 14-1 20-4 10-11 18-20 24v1c16 4 32 4 47-2 7-3 13-8 19-12 3-2 9-5 10-9l17-33 42-83c4-8 10-16 13-25 4-11 9-21 11-33 4-22-3-44-13-64 0-1-3 0-2 2"/><path fill="#373535" d="M294 298c3 23-3 46-14 67-4 9-11 17-17 25-6 9-10 20-14 30-6 18-11 37-20 54-8 16-11 31-7 49l2-1c-4-18 1-33 9-50 9-17 13-36 20-54 4-11 8-21 14-30s12-16 17-26c10-20 15-42 12-64h-2M84 375c1 40 28 74 34 113h3c-6-40-33-74-35-114l-2 1"/><path fill="#373535" d="M296 279c-3 24-12 49-21 72-3 7-5 14-9 20-2 5-6 9-9 13l-14 17c-11 12-23 23-37 33-7 5-16 10-25 11-11 2-21-1-31-4-5-2-10-4-13-8l-9-8-18-18-15-19-14-23c-8-10-13-22-18-33l-14-36c-3-12-6-24-7-37-2-12-10-21-14-32-1-1-3 0-3 1l11 21c4 8 4 18 5 26 4 18 10 35 17 52l11 24 7 11 8 12c7 15 17 27 28 38l17 17c2 2 5 6 9 8l12 5c12 5 28 7 40 2 28-12 49-35 67-58 5-6 10-11 13-18l10-24c8-21 16-43 19-66l-3 1"/><path fill="#373535" d="M158 109c-1 17-25 24-38 30-11 4-21 10-33 14l-28 10c-14 7-28 20-32 35-3 9 0 18 2 27s6 17 11 25l2-1v-2c-1-1-3-1-3 1v1l3-1c-5-7-8-17-11-26-2-9-4-19 0-29 7-19 29-29 48-35 18-6 36-15 54-22 11-5 27-14 28-27h-3"/><path fill="#373535" d="M150 104c-7 6-17 7-26 11l-29 11c-16 6-31 15-44 26-11 10-20 23-25 37-4 10-7 26 3 34l2-1c-10-9-5-26-1-37 5-15 16-27 28-37 16-13 34-21 53-27l24-9c6-2 12-4 17-8h-2"/><path fill="#373535" d="M153 83c-44 7-90 12-125 44-14 14-27 32-27 52-1 10 3 19 9 27l11 16c4 4 10 7 13 12h2c-2-4-5-6-8-8l-11-13c-6-9-12-19-13-29-3-21 11-41 25-55 33-33 80-38 124-45 1 0 2-2 0-1M158 110c5 1 9 0 14-1 5-2 10-3 16-2l11 5c10 7 18 17 28 24 11 8 24 12 37 16l12 2c2 1 12 1 13 4 0 0 3 0 2-1 0-4-15-4-19-5-15-3-31-8-44-18-10-8-19-18-30-25-4-3-9-4-14-4-8 1-16 5-24 4l-2 1M157 107c15-3 26-13 42-13 15 0 25 14 35 23 20 19 44 34 70 41 1 0 3-1 2-2-31-8-57-27-80-50-9-8-16-14-29-14-15 1-26 11-40 14-2 0-2 1 0 1M160 92c6-6 15-7 23-9l21-4c9-2 19-2 29 1 8 4 15 9 22 15 12 10 22 24 31 37l14 18c5 4 13 9 11 17l3-1c1-7-4-11-9-15-8-7-13-16-19-24-11-15-23-31-39-41-7-5-15-9-24-10-8 0-17 1-25 3l-24 5c-6 2-12 4-16 9l2-1M175 57h-2l-1 1 3-1"/><path fill="#373535" d="M173 53c-37-3-75 2-103 28-13 12-23 28-31 44-4 9-9 18-10 28 0 3 0 13 5 13 1 0 3-1 1-1l-3-7c-1-4 0-9 1-14 2-7 6-14 10-21 7-14 15-27 26-38 26-28 65-34 102-30 1 0 3-1 2-2"/><path fill="#373535" d="M168 24c-4-4-11-3-16-3-9-1-18 0-27 2-17 3-32 9-46 18-25 18-41 47-52 76 0 2 2 2 3 0 9-26 23-52 45-70 12-10 27-17 42-21 8-2 17-3 25-3 6 0 19-2 24 3 1 0 3-1 2-2"/><path fill="#373535" d="M184 7l-20-5-19-1c-12 0-24 3-35 7-24 8-45 24-61 42-36 41-40 96-36 148l3-1c-1-3 0-6 1-10l-3 1-1 10 3-1c-4-49-1-101 31-141 15-19 35-34 56-44 13-6 27-9 41-10 14 0 25 4 39 7 0 0 3-1 1-2M179 40c17-2 34 1 50 5 15 4 28 12 39 22 12 11 20 26 27 41l8 21c2 5 6 12 4 18l3-1c1-5-1-11-3-15l-9-24c-7-16-16-31-29-42-11-11-26-18-41-22-16-3-32-6-49-4-1 0-2 1 0 1"/><path fill="#373535" d="M183 10c9-2 18 0 27 2l23 7c15 6 29 16 39 28 9 11 14 26 20 40 5 15 11 31 14 48l3-1c-3-19-10-36-17-54-5-15-12-29-23-40-12-12-27-20-43-26-13-4-29-9-43-5-2 0-1 1 0 1M164 116c30-7 61 8 85 26l37 28c6 5 12 9 17 15 2 1 2 3 2 4 0 2 3 3 4 3l2-1c-3-1-3-2-3-4-1-3-3-5-5-6l-22-18c-13-9-24-20-37-28-23-16-52-27-80-21-2 1-2 2 0 2M158 76c-9 1-19-5-28-7s-17-3-26-3c-15 0-29 5-42 13-23 15-41 44-35 73l3-1c-6-29 12-56 36-72 14-9 30-12 47-11 9 1 17 3 26 6 6 2 12 4 19 4 2 0 2-2 0-2"/><path fill="#373535" d="M152 91c-7 6-19 5-27 6-8 0-15 0-22 2-14 2-28 6-39 15-13 10-24 22-33 35-6 8-9 17-12 27-1 5-5 15-1 20 0 1 3 0 2-1-4-5 1-16 3-22 2-10 8-20 14-29 9-12 20-24 33-32 13-9 31-13 46-14 12 0 29 2 38-7h-2"/><path fill="#373535" d="M170 38c-25 3-51-3-76 5-17 5-35 10-50 20C10 86 1 131 9 169l2-1c-7-35 0-76 29-101 15-12 35-18 53-23 25-8 51-1 76-5 1 0 3-1 1-1M31 164c-7 13-13 26-15 41h2c3-15 9-28 16-41h-3M160 125c-6 8-14 18-24 23-6 3-15 2-22 3l-28 8c-16 5-30 16-39 30-2 2-13 25-8 25 1 1 3-1 1-1l4-14c3-7 8-14 13-20 13-14 30-19 47-24l24-4c16-2 26-14 35-26h-3M157 95c16 0 33-4 49-5 17 0 31 8 42 19 13 11 22 25 33 38 12 14 27 23 40 35l3-1c-14-13-29-22-42-37-11-13-21-27-34-39-10-8-22-15-35-16-8-1-16 1-24 2l-31 2c-1 0-3 2-1 2M170 136l31 4c10 2 18 6 27 11 16 9 30 24 41 39 4 6 6 11 8 18 0 2 0 5 2 7 6 10 19 13 29 17l2-2c-10-3-26-7-30-19l-2-9c-2-8-8-15-13-21-12-14-25-26-40-34-17-9-36-10-54-12-1-1-3 1-1 1"/><path fill="#373535" d="M167 132c34-11 76 2 96 33 14 23 19 54 45 66 1 1 3 0 2-1-28-14-31-49-49-72-10-13-26-23-41-28-18-6-36-6-54 0-1 0-1 2 1 2M158 114c-7-1-14-5-21-8-5-3-11-3-17-3-12 1-23 8-31 17-10 10-17 25-20 39-2 7-3 14-2 21 0 8 3 16 6 24l2-1-5-17v-19c2-13 6-26 13-36 8-14 21-25 37-27 14-1 24 9 36 11l2-1M274 155c9 2 17 10 24 16 5 6 12 15 20 16 4 1 8-1 7-6l-6-8-9-9-3 1c5 4 9 8 12 13l2 2c2 3-1 6-4 4l-11-8c-9-8-18-19-30-23-1 0-3 1-2 2M293 211c4 7 3 12 2 20-1 9 10 17 17 22l2-1c-7-6-17-13-16-23 1-7 2-12-2-18h-3M276 163l6 23c1 8 2 15 7 21 1 3 4 4 6 6l7 8 1 3c-1 5-6 10-10 14l-2 4c1 7 17 10 22 12l2-2c-4-1-24-6-20-13 3-5 12-10 11-18l-2-2-3-4-7-6c-6-6-8-14-9-21-2-9-3-17-6-25-1-2-3-1-3 0"/><path fill="#373535" d="M300 204c5-4 10-8 15-10 11-3 4 12 2 16-2 3-3 5-3 9 2 8-3 14-7 20-3 6 3 18-5 20-2 1-1 3 0 2 10-3 5-11 7-19 0-5 5-9 7-14 1-3 2-7 1-10-1-4 2-7 4-9 2-4 5-11 2-15-5-8-20 5-25 8-1 1 1 3 2 2M308 281c13 20 34 35 55 47 23 14 48 25 74 32l2-1c-26-7-50-18-72-31-21-12-43-27-57-48 0 0-3 0-2 1"/><path fill="#373535" d="M307 282c9 14 24 21 39 28 9 3 19 6 27 11 9 5 15 13 19 23l3-1c-3-8-8-15-14-20-7-5-15-8-23-11-18-7-37-14-49-31 0-1-3 0-2 1"/><path fill="#373535" d="M300 280c4 9 11 15 20 19 11 5 23 4 35 6 17 4 41 18 38 39l3-1c2-17-15-30-29-36-11-5-23-5-34-6-13-2-25-10-30-22l-3 1"/><path fill="#373535" d="M310 281c11 5 22 10 33 13l27 8c20 9 34 24 36 46l3-1c-3-1-5-5-6-7l-5-8c-1-1-4 0-3 1l5 8 6 7c1 1 3 0 3-1-2-21-15-35-33-44-9-4-17-7-26-9-13-4-25-8-38-15 0 0-3 1-2 2"/><path fill="#373535" d="M312 278c6 3 5 9 6 14 0 7 5 11 10 14 9 4 20 2 30 3 15 1 43 8 36 29l2-1c7-19-16-26-30-29-11-1-22 1-32-2-8-2-13-8-14-16 0-5 0-10-5-13l-3 1M171 259c4-5 10-6 15-10l20-14c14-8 29-12 43 0 1 1 3-1 2-2-12-11-26-9-40-2-8 3-15 8-22 13-6 6-15 8-21 14-1 1 2 2 3 1"/><path fill="#373535" d="M181 260c1-7 7-12 12-16 8-6 18-11 28-14 6-1 22-3 25 4 2 3 4 3 8 3 1-1 2-2 0-2-5 1-4 0-6-4-2-2-6-3-9-3-8 0-15 0-22 2-9 3-18 8-26 14-5 4-12 9-12 16h2"/><path fill="#373535" d="M183 255c12-16 31-22 50-23l7 2c2 0 2 1 3 2h6c2 0 3-2 1-2-5 1-6-1-10-3-3-2-9-1-12 0-19 1-36 9-47 24h2"/><path fill="#373535" d="M181 260c8-4 19 0 28-2 7 0 13-2 18-6 5-2 10-6 14-10l2-3c1-2 4-2 6-4h-3l-7 6c-3 5-9 8-15 11-8 5-18 6-28 5-6 0-11 0-17 3h2"/><path fill="#373535" d="M229 230c5 9 3 19-7 23-5 2-10 4-15 1s-7-9-7-15l-2 1c-1 6 3 14 9 16 4 1 9 0 13-1 12-4 18-13 12-26l-3 1M187 248c1-1 0-1-1-1l-2 1-3 6c0 3 2 4 4 3l3-2c1-1-1-1-1-1v1l-1 2h3c0-1 2-4 0-4-1-1-4 1-5 2v-3l2-2v-1c1-1 1 0 0 0h-1v-1h2"/><path fill="#373535" d="M208 236c-4 14 8 14 12 11 3-2 5-4 5-10 0-3-1-5-2-4-1 9-8 12-11 9v-8l-4 2"/><path stroke="#373535" stroke-width="2" stroke-miterlimit="10" d="M208 236c-4 14 8 14 12 11 3-2 5-4 5-10 0-3-1-5-2-4-1 9-8 12-11 9v-8l-4 2z"/><path fill="#373535" d="M211 233c13-4 27-7 39 3 1 1 3 0 2-1-13-12-27-8-42-4-2 1-1 3 1 2"/><path fill="#373535" d="M216 233c8-2 23-5 30 2 1 1 3 0 2-1-7-8-23-5-33-3-1 1-1 3 1 2M131 255c-17-2-30-12-47-13-12 0-24 3-31 12h2l1-2h-3v2h2c9-11 24-12 36-9 13 2 25 10 38 12 1 0 3-1 2-2"/><path fill="#373535" d="M54 255c5-4 10-7 17-8 8-2 15 0 22 2 4 1 7 1 10 3 5 4 10 6 16 8 0 0 3-1 2-2-7-2-12-5-17-8l-6-2-13-3c-13-2-23 2-33 10h2"/><path fill="#373535" d="M100 251l10 6 9 8c0 1 3 0 2-1-1-3-5-5-8-7l-10-7c-1-1-4 0-3 1M100 249c-11-3-23-6-34-5-7 2-12 6-16 11h2c4-5 9-8 16-9 10-1 21 2 31 5 1 0 3-1 1-2"/><path fill="#373535" d="M121 265l-17 2c-9 3-17 2-26 0-5-2-11-5-16-10l-6-4c-1-1-3 0-2 1l7 6c5 4 11 7 17 9 7 2 14 2 22 1 7-1 13-3 20-3 2 0 2-2 1-2"/><path fill="#373535" d="M75 244c-5 6-3 13 0 19s7 6 13 7c4 0 9 1 13-1 6-3 8-10 8-16l-3 1c0 5-1 14-8 15l-13-1c-10-2-13-17-7-24h-3M115 266l3-3v-2-1l-1-1v1h-1c-1 0-1 0 0 0l1 1 2 2 2 1v-1h-1l-1 1c-1 1 2 2 3 1h-1c1 0 3-1 2-2l-4-4c-1 0-3-2-4-1v3c1 1 0 2-1 3-2 1 0 2 1 2"/><path fill="#373535" d="M88 256c0 1 5 2 7 0 1 0 4-1 5-6 0-4 4 7-3 12-5 3-12-1-13-3-3-4-3-8 0-13h4v10"/><path fill="#373535" d="M87 256c0 3 7 2 8 1l4-2 1-3c0-1 2-3 0-3l-1 1v6c0 2-1 4-3 5-2 2-6 1-9-1-4-2-4-8-3-12 0-1 2-3 3-1v9h3c0-3 2-9-1-11-2-1-6 0-7 1-4 8 1 19 11 17 7-1 12-7 9-14h-4c-1 3-1 5-3 6-1 1-5 3-5 1h-3"/><path fill="#373535" d="M59 255l10-8c7-3 12-2 19-1s13 4 19 9l1-2h-1c-2 1-1 3 0 2h1c1-1 2-1 1-2-8-7-18-8-28-10-9-2-18 6-25 11-1 2 2 2 3 1M309 266c-7-1-11-11-12-17h-2c-8 8-7 28 6 31 5 2 13 1 15-4 4-6-2-14-6-19-1 0-4 1-3 2 3 3 6 7 8 12 2 9-12 9-17 6-4-3-5-10-5-14 0-5 1-10 4-14h-2c0 7 5 18 13 19 1 0 2-1 1-2M310 280c5 2 8 7 13 10 4 3 8 4 13 5 14 3 28 1 42 1 14 1 30 4 38 17 4 5 5 11 6 17 2 8 3 15 3 23l3-1c0-13-3-28-9-40-6-10-19-14-31-16-14-2-28-1-42-1-8-1-16-2-22-7-4-3-7-7-12-9l-2 1M167 405l10-1c1 0 3-2 1-2l-12 1c-1 1-1 2 1 2M166 483c14 6 29 4 42-3 11-6 24-13 32-23 1-2-3-2-3-1-7 9-18 15-27 20-13 7-27 11-42 5-1-1-4 1-2 2M113 465l10 5c2 1 4-2 1-3l-4-2-5-3c-1-1-4 2-2 3M136 476v7l3-1 2-5-3 1 2 14 3-1 2-12c0-2-4-1-4 0l-1 13 3-1-2-14h-3l-2 5h3v-6h-3M149 517v3h3l6-16h-3l1 11c0 2 4 2 4 0l-2-12h-3l-6 16h4v-3c0-1-3-1-4 1M169 19c-4-4-12-3-17-3-10 0-19 0-29 2-17 2-33 8-47 18-27 17-44 46-55 76l3-1c10-26 24-51 47-69 12-11 28-17 43-21l28-4 13 1c4 0 8 0 11 2 1 1 4 0 3-1"/><path fill="#373535" d="M172 43c-37-3-75 2-103 28-13 12-22 27-30 42-4 9-9 18-11 28 0 3 0 15 5 15 0 0 3-1 1-1s-3-6-3-7c-1-4 0-9 1-14 2-7 6-15 10-22 7-13 15-26 26-37 26-28 65-34 102-30l2-2"/><path fill="#373535" d="M165 36c-11 0-21-5-31-8l-27-3c-16-1-31 3-45 10-25 14-47 41-40 72l3-1c-7-29 13-55 37-69 16-8 33-11 51-10 9 0 17 2 26 5 8 2 16 5 25 5 1 0 3-1 1-1M161 70c-16-7-33-4-49 2-19 7-37 15-50 31-24 29-30 77 1 104l3-1c-29-25-26-66-7-95 11-17 26-26 44-34 18-7 38-14 56-5 1 0 3-1 2-2"/><path fill="#373535" d="M153 97c-10 15-31 12-47 17-12 4-24 12-33 20-14 12-23 27-31 43-9 20 9 33 25 41l3-1c-10-5-19-9-24-18-7-10-3-19 2-28 8-16 18-31 33-41l17-11c8-4 17-6 27-7 11-2 23-5 31-16l-3 1"/><path fill="#373535" d="M158 115c-2 12-13 20-22 28-11 9-23 17-36 25-9 5-19 9-27 17-5 7-6 17 0 23l3-1c-10-9-2-22 7-28 9-7 21-12 31-18l31-23c7-7 14-14 15-24l-2 1"/><path fill="#373535" d="M157 130c-14 14-30 34-51 37l-14 1c-7 0-13 2-19 4-11 4-20 9-29 16-3 3-10 7-10 12-1 7 9 11 14 13s13 6 19 5c1 0 2-1 0-1-6 1-15-4-21-7-5-3-13-8-7-14 5-7 13-12 20-16 9-5 19-9 30-10 8-1 16 0 25-3 18-7 32-23 45-37h-2"/><path fill="#373535" d="M167 127c-5 14-19 22-32 30-13 9-28 16-43 22-25 10-56 15-70 42h3c14-29 51-33 78-45 14-6 27-13 40-21 10-8 22-16 27-28h-3M159 47c-24-3-49-5-72 6-22 10-38 31-50 51h2c12-19 25-37 44-48 23-14 50-11 74-8l2-1"/><path fill="#373535" d="M161 70c-15-15-37-18-58-17-22 1-46 5-62 21h2c15-15 39-18 60-19 20-2 41 2 56 17 1 0 3-1 2-2M271 76c-8-20-24-35-44-44-10-5-22-8-33-9-9-1-18 1-23 9h3c7-16 32-12 46-8 16 5 29 15 40 27 22 25 31 59 39 90 1 1 3 1 3-1-10-36-21-74-50-100-13-12-30-19-47-21-12-1-28 1-34 13 0 2 2 1 3 0 7-11 22-7 33-4 9 2 18 5 26 10 16 8 28 22 35 39 1 1 3 0 3-1"/><path fill="#373535" d="M282 119c5-28-13-53-37-66-13-6-27-9-41-11-9-1-27-4-32 7l1 1c30-2 60 8 82 29 20 19 32 46 33 74l3-1c-1-30-15-58-38-78-21-19-51-28-79-26l1 1c3-8 16-6 23-5l20 2c12 3 23 7 33 14 20 13 32 36 29 60l2-1"/><path fill="#373535" d="M310 164c-24-27-40-60-70-82-13-10-28-16-44-17-12 0-25 4-31 14l1 1c17-3 34-3 51 2 16 6 28 19 38 32 19 23 36 50 61 67 1 1 3-1 2-1-28-19-45-50-67-75-10-12-21-21-36-25-16-5-33-4-49-1h2c8-14 27-13 41-10 15 4 29 13 40 24 23 21 38 49 58 72 1 1 4 0 3-1M18 130c1 0 3-1 1-1-1 0-3 1-1 1M53 55c15-16 34-28 55-34 10-4 21-5 31-6 10 0 29-1 31 11l2-1c-46-2-99 0-131 39h2c31-38 83-40 128-38l2-1c-2-11-16-10-25-11-12 0-25 1-37 4-23 6-45 20-61 37h3"/><path fill="#373535" d="M89 21c13-8 27-13 42-15 15-3 37-5 44 12l2-1C141 3 100 8 70 31c-2 1 1 2 2 2 29-23 69-28 103-14 1 0 3-1 2-2-6-16-25-16-39-14-18 1-36 8-51 17-2 1 0 2 2 1M68 217c-8-22 0-45 15-63 7-8 15-16 24-23 11-9 25-17 40-12 1 1 3 0 2-1-14-8-33-10-49-8-16 1-30 8-41 19-23 23-21 60 0 83 1 1 4 0 3-1-20-21-22-53-5-76 9-14 24-21 40-23s36-1 50 7l1-1c-24-9-47 13-62 29-18 19-30 46-20 71 0 1 3 0 2-1M312 164c-2-17-2-35-5-52-3-16-11-29-22-41-23-21-55-34-85-42l-1 1c13 0 27 0 39 8 11 6 18 20 23 31 13 26 27 51 42 76 0 0 3 0 2-1l-45-84c-6-11-13-20-24-26s-24-6-36-5l-2 1c31 8 62 22 86 44 25 24 21 60 25 91 1 1 3 0 3-1"/><path fill="#373535" d="M297 86c-3-27-25-45-50-54-23-8-54-10-74 5v2c25 4 48 13 69 26s38 31 55 47c1 1 4 0 3-1-18-18-37-35-58-49-20-13-44-21-68-25v2c21-16 51-12 73-4 24 8 45 26 47 52 0 1 3 1 3-1M170 128c53-3 84 55 132 68 1 0 3 0 2-1-34-34-75-73-128-66v1c29-9 60 1 87 12 22 9 47 25 51 51l3-1c-5-27-32-44-56-53-27-10-58-20-86-10v2c52-8 93 31 127 65l2-1c-49-13-79-72-134-68-1 0-2 1 0 1M169 131c-4 11-13 17-23 23l-38 21c-11 6-23 11-33 19-7 5-11 15-4 22 1 1 3 0 3-1-11-10 3-22 12-27l37-20c10-6 21-11 31-18 8-5 15-11 18-20l-3 1"/><path stroke="#373535" stroke-miterlimit="10" d="M298 268c-2 0-4 7-2 7M301 270c-2 2-3 5-2 8M303 272c0 1-2 4-1 7"/><path fill="#373535" d="M291 202c6 4 23 15 18 25-3 7-12 6-10 14h2c-2-7 10-9 11-16 2-10-14-20-20-24-1-1-2 0-1 1M305 232l-4 2c-2 2-3 4-2 7l2-1c-1-2-1-5 2-6l3-2h-1M307 206l4-3 2-2 1 3c-1 5-4 9-6 12h3l4-9c1-2 2-4 1-6h-4l-8 5 1 1 2-1M299 195c-1 2-3 7-6 6-4-2-6-7-7-10-1-1-3 0-3 1 2 3 5 11 11 10 4 0 6-4 8-7h-3M316 279c25 4 55-5 77 12 20 15 8 44 23 62 1 1 4 0 3-2-8-10-8-23-9-35-2-11-5-20-14-27-22-18-54-9-79-12-2-1-4 2-1 2M251 416c-12 17-29 32-48 40-1 1 0 2 2 1 19-8 37-23 48-41h-2M160 372c6-4 12-6 19-5l8 1c7 0 12-4 20-2l2-1c-10-4-19 2-28 0-9-1-16 1-23 7h2"/><path fill="#373535" d="M125 373c6 1 9 4 12 8l12 8c8 4 19 4 28 3 8-1 15-5 21-10 3-3 10-10 10-14h-3c0 4-7 11-9 13-8 8-18 10-29 10-10 0-19-3-26-10-5-5-7-8-14-9l-2 1M206 363l2 3 4 2c1 1 4-1 3-1l-4-2-3-4c-1 0-3 1-2 2"/><path fill="#373535" d="M158 371c-6 1-11-3-17-3h-9c-5 0-12 1-14 6h2c4-2 9 0 13 1l12 2c6 1 14 5 20 2h1c4-3 7-3 11-3l13-1c3-1 6-1 8-3 4-1 6-5 10-6v-1c-3 0-4 2-6 3-5 4-11 6-18 7-7 0-14-1-20 3-3 2-14-2-17-2l-12-3c-6-1-11-2-16 0h2c3-5 14-5 19-4 7 1 11 4 18 3 1 0 2-1 0-1"/></g><g transform="translate(358 349)" clip-path="url(#b)"><path fill="#373535" d="M279 133l-5 7 1 1 2-1c3-1 5-3 7-6h-1l-2 1-6 5 3-1 4-6c1-1-1-1-1-1l-2 1"/><path fill="#373535" d="M286 125l-7 13c-1 2 3 2 4 0l7-13c1-2-3-2-4 0"/><path fill="#373535" d="M296 122l-3-3c-1-1-5 1-4 2 7 5-8 18-17 25 4-9 9-17 17-23 2-2-2-2-3-1-10 7-16 16-20 28-1 1 3 1 3 1 12-7 21-16 28-28l-1-1M157 148l-5-13-2-5c-1-3 0-11 7-7 9 5 1 17 1 24l4-1c-1-7 4-13 2-20-1-4-6-6-10-5-15 2-4 20 0 28l3-1M169 144c-4 6-9 14-9 22 0 5 5 6 9 5 5-1 10-6 12-11 2-3 1-6 0-9l-8-7c-1-1-4 0-3 1 2 4 6 5 8 9 3 5-2 11-6 14-9 6-8-5-7-10l7-14c1-2-2-1-3 0"/><path fill="#373535" d="M56 26c-1 18 10 33 15 50 5 18 5 35 5 53-1 9 2 17 7 23l7 7 10 7c14 12 31 17 47 25l11 6c2 0 4 2 5 1l2-1c3-2 3-1 7-1l27 2c9 1 18 2 24 9s10 16 13 24l9 24c6 17 11 35 19 51h3c-15-32-20-67-39-97-8-13-24-12-39-13l-13-1-8-1-3 2-2 2c1-1-7-4-8-5-16-8-33-13-48-24l-19-15c-4-1-6-7-7-11l-3-12 1-27c-1-9-2-18-5-27-5-17-16-33-15-52l-3 1M292 154l-1-4-4 2-3 9h3c3-1 5-3 7-6h-1l-2 1-6 5 3-1 2-7 1-2c-3 4-4 0-3 1l1 2h3"/><path fill="#373535" d="M296 146l-7 13c-1 2 3 2 3 0l8-13c1-2-3-2-4 0"/><path fill="#373535" d="M279 172c5-2 21-16 27-28v-1l-3-3c-1-1-6 0-4 2 7 5-8 18-17 25"/><path fill="#373535" d="M281 168c3-8 10-18 18-24 2-2-2-2-4-1-9 7-19 23-16 29M69 2C52 35 27 66 1 91h3C31 66 56 35 72 1l-3 1"/></g><g transform="translate(-1 39)" clip-path="url(#c)"><path fill="#373535" d="M231 420c-10 15-21 30-33 44-8 9-16 18-22 29-5 7-8 14-7 22 0 10 2 20 4 30 5 22 12 45 22 65 7 14 18 20 32 24 19 5 40 4 60 2 23-2 46-8 69-15 20-6 40-14 58-26 7-4 14-9 19-15 8-8 12-18 16-28 7-14 8-27 3-41-4-14-11-28-18-41-17-31-41-56-72-72-1 0-3 1-2 2 28 14 50 35 66 61l17 33c5 13 11 27 9 42-2 13-9 27-16 37-5 7-11 13-18 17-18 13-39 22-60 29-23 7-47 13-71 15-21 3-42 3-62-3-7-2-15-5-20-11-6-5-9-14-12-21-9-22-16-45-20-68-1-8-2-15-1-23s7-16 11-23c17-22 36-42 51-65h-3"/><path stroke="#201f1f" stroke-width="2" stroke-miterlimit="10" d="M68 198l-20 4s2 5 5 7c-6 1-5 2-6 1-3-3-10-19-11-23-2-5-2-10-2-15 1-30-2-60-10-89l9-3c1 4 0 10 4 13 2 2 4 0 6 2l6 25c5 23 16 45 20 68l2 30c2 13 20 59 25 69 11 20 34 72 47 86s9 15 65 6l20-4c3 0 0-6-1-13 2-11 34-15 39-12s8 10 8 20c47-18 38-10 60-23 10-6 0-139-2-155-2-20-11-25-16-31-8-9 5-19 1-35-11-39-11-39-32-84-11-22-17-19-33-24-18-6-166 18-194 28-9 3-19 9-19 24 0 5 1 19 4 25"/><path stroke="#201f1f" stroke-width="2" stroke-linecap="round" stroke-linejoin="round" d="M300 181c4 1 8 1 11 9 3 6 6 105 6 113 0 18-7 19-21 24-10 4-117 28-136 25-8-1-15-11-19-17-29-44-52-109-47-119 5-8 77-19 106-24 38-7 90-12 100-11zM66 58c-16 2 6 78 25 115 3 6 5 13 13 14l13-1c25-7 88-16 99-17 26-4 66-7 74-13 10-8 16-22 11-39-3-9-18-61-29-76-4-5-8-10-15-12-5-2-12-2-18-2-24 0-64 6-80 8-23 3-84 15-93 23zM244 407c4-3 23-12 29-6 2 2 8 41 19 79-5-2-9-4-15-2-5 2-6 3-10 8l-23-79z"/><path stroke="#201f1f" stroke-miterlimit="10" d="M266 353c-10-4-15-3-21-2-7 2-14 5-18 9-3 4 4 20 5 25l10 23c5-3 10-7 16-8 7-1 16 0 17 2 0-16-5-48-9-49z"/><path stroke="#201f1f" stroke-width="2" stroke-linecap="round" stroke-linejoin="round" d="M234 114c-9 2-118 17-150 24l3 8c22-4 154-26 199-30 1-4-2-5-5-8l-47 6zM232 97c-10 1-118 17-150 23-2 1 1 8 2 9 22-5 154-27 199-31 1-3-2-5-5-8l-46 7zM225 79c-9 2-118 17-150 24l2 8c23-5 155-26 199-30 2-4-2-6-4-8l-47 6zM220 62c-10 1-118 17-150 23-2 1 1 8 2 9 22-5 154-27 199-31 1-3-2-5-5-8l-46 7zM212 46c-8 1-111 16-141 22-2 0 1 8 2 9 21-5 146-26 188-29 1-4-2-6-5-9l-44 7zM241 130c-9 2-118 17-150 24-2 0 1 7 2 8 23-5 155-26 199-30 1-4-2-6-4-9l-47 7zM242 147c-9 2-113 16-144 23l2 8c22-5 148-26 191-30 1-3-2-4-4-7l-45 6z"/><path stroke="#201f1f" stroke-width="2" stroke-linecap="round" stroke-linejoin="round" d="M61 59c-13 4 6 81 26 121 3 6 5 13 13 14 4 1 10 0 14-1 27-6 92-16 104-18 27-4 69-7 77-13 11-8 16-23 12-41-3-10-20-65-31-81-4-5-9-11-15-13-6-3-13-3-20-2-24 0-66 6-83 8-24 3-87 18-97 26zM64 183c-1-9-1-9-5-18-3-11-11-37-14-55l-2-8c-2-2-3-3-6-2 4 24 6 44 7 67 0 9 0 13 2 21 6-1 13-2 18-5zM252 350c3 6 12 39 12 48l17 79h5c-4-21-15-64-16-78 0-7-6-39-10-49h-8zM304 164c-3 3-9 4-14 5l-35 7c-4 1-9 2-12 5l20-3 16-1c11-1 22-1 33 1l-8-14zM105 201h10c0 2-7 4-13 6s-8 2-11 5c-2 4-1 21-2 22l-4-3c-4-12-6-17-6-35l-1-7c0-2 1-3 2-2 5 8 12 15 25 14zM181 364c24-1 46-12 69-16l21-4 8-4c5-1 11-1 16-3 6-1 11-4 13-9-49 16-100 27-151 32 0 2 4 3 6 3l18 1z"/><path stroke="#524c4c" stroke-width="2" stroke-linecap="round" stroke-linejoin="round" d="M224 368l-66 10"/><path stroke="#42403f" stroke-width="2" stroke-linecap="round" stroke-linejoin="round" d="M275 361l16-4 17-4"/><path fill="#373535" d="M285 38c5-8 16-9 24-6 6 2 10 8 11 14 4 13 1 26 1 39-1 13 5 26 8 38l2 10c1 4 2 13-1 17l3-1c-1-1-4 0-3 1l3-1c3-3 1-10 1-15l-3-13-7-26V68c1-14 1-31-13-38-9-4-23 0-28 8h2M86 39c-4-6-5-12-3-19 4-10 15-13 24-12 8 1 15 5 22 9 5 3 13 5 17 10 0 1 3 0 2-1-2-3-5-4-9-6l-14-7c-8-4-17-8-27-6-16 2-24 20-14 33l2-1M158 385c7 10 22 11 33 14 9 2 18 3 26 7 8 2 12 8 15 15 6 13 7 29 7 44v68l2-1v-66c0-15-1-30-6-44-2-6-6-12-11-15-6-4-14-6-21-7l-28-7c-6-2-11-4-15-9l-2 1M108 352l7-3c3-1 5-5 7-8l-2 1-7 7-5 2c-2 0-2 1 0 1"/><path fill="#373535" d="M81 315l6 6c2 2 3 6 4 9l7 14c1 2 3 8 6 8l3-1 2-4 5-6-4-8-11-21-3 1 14 26c1 3-1 4-3 7l-3 5h2c-4-2-6-9-7-12l-7-13c-2-5-4-8-8-12l-3 1"/><path fill="#373535" d="M95 318c-2 1-1 4-4 5h2l-5-5 1 1c0-3 3-4 6-4 1 0 3-2 1-2-4-1-9 2-10 6l1 1 3 4 2 1 3-3 1-3 1-1h-2M82 318c13-7 17-19 14-34 0 0-3 0-2 1 2 14-1 26-14 32-1 1 1 1 2 1"/><path fill="#373535" d="M59 280c1-2 8-10 10-7 2 4 2 9 3 13l4 11 6 16c1 4-8 6-7 9l2-2-4-7-4-9-8-21-4-6c-2-4-2-8-1-11 0-6 3-13 5-18 4-10 11-19 12-30h-3c0 12-8 22-13 33-2 5-4 11-4 17l1 10 5 8 8 22c2 3 5 14 9 14l2-1 7-7-1-4-8-21c-2-6-2-14-6-18-3-4-12 7-13 9h2"/><path fill="#373535" d="M64 292c4-5 7-9 5-15 0-1-3 0-2 1 1 5-2 9-5 14h2M324 45c0-4-2-8-3-11-2-4-6-6-10-7-5-1-21-5-22 4h2c1-7 23-2 26 1s4 10 4 13c0 2 3 1 3 0M112 7c-5-2-11-5-16-5l-7 4c-5 4-8 9-10 14l-1 8c-1 3 0 4 3 6 0 1 3 0 2-1s-3-2-3-4l1-7c1-5 3-8 6-12 3-3 7-7 11-6l11 4 3-1M333 130l-3 1 20 48 14 38 6 22c2 10 1 20-1 30l-13 69c-1 8-2 14-7 20-7 10-18 22-30 25-2 1-2 3 0 2 11-3 20-12 28-21 5-5 9-11 10-18l12-68 5-24c0-9-2-18-4-27l-13-39-24-57v-1c-1-1-3 0-3 1 1 1 3 0 3-1"/><path fill="#373535" d="M353 353c-5 21 5 43 12 63l8 22 17 39c1 1 3 0 3-1l-16-36-8-22c-7-20-18-44-14-65h-2M362 406l15 11c6 4 9 10 12 16 4 6 7 14 8 21 1 11-4 20-10 28-19 25-52 38-82 42l-1 1c31-4 61-16 82-39 7-7 12-15 14-25 1-8-2-17-5-25-4-6-8-13-13-18l-17-13c-1-1-4 1-3 1"/><path fill="#fff" d="M268 485l2 7 7 22 6 19c3 6 6 8 9 10s33 19 51 22c26 5 47 24 56 33 3 2 26 38 27 35l8 4c-12-25-36-58-46-70-8-10-25-11-37-15-12-5-24-8-36-14l-1-1c-6-4-10-13-13-18-7-16-12-38-12-38-1-6-21-2-21 4"/><path fill="#373535" d="M266 485l6 18 7 22c3 9 7 16 16 21 9 6 19 10 29 14 12 5 25 7 37 12 18 8 33 20 44 36l15 21c1 1 5 7 7 4h-2l8 4c0 1 3 0 2-1-10-22-24-42-39-61-6-9-12-15-23-18l-40-13c-6-2-14-4-19-9-5-4-8-11-11-17-6-10-9-22-12-34-1-6-3-7-9-6-5 0-15 1-16 7l3-1c1-5 18-8 19-2l8 27c3 9 7 19 14 26 4 4 8 5 12 7l21 8 32 9c9 4 14 11 20 19 14 18 28 38 37 59l3-1-8-4-2 1c1-2 2 0 0-2l-3-4-6-9-13-18-15-14c-10-7-20-13-31-18-10-4-22-5-33-10-9-3-18-8-26-13-10-5-14-13-17-23-3-6-4-13-6-20l-6-18-3 1M235 428c-11 18-25 33-36 50-6 9-17 24-11 35 6 12 22 17 34 19 19 3 39 1 58-2 2 0 2-2 1-1-19 2-38 4-57 1-12-1-31-7-35-20-4-12 9-27 16-36l32-45c1-2-2-1-2-1M307 248l-10 7 15-19h-4l-25 34-13 19h5l12-19 17-17-22 39h4l9-8-12 27h4l4-4h-2l14-33h-4l-8 10 20-36h-4M154 280l-1-13h-3l-8 8 17-38h-3c-8 6-15 14-20 23l17-37c1-2-3-2-3-1-10 18-18 37-25 56-1 2 2 2 3 1 7-13 15-25 25-36l-17 39c-1 2 2 2 3 1l11-12v9c0 2 4 1 4 0M301 212l-8 7 3-6c0-1-4-2-4 0l-12 22c0 1 4 2 4 0 4-6 9-12 15-17l-3 8c-1 2 4 2 4 0l5-13c0-2-3-1-4-1M131 220c-6 7-11 15-15 23 2-10 5-19 9-27h-3c-6 13-10 26-13 40l4-1 16-29-3 16h3l5-23-3 1M525 510c12 0 20 10 26 19 5 9 8 19 12 29l14 41c1 1 4 0 3-1l-18-51c-6-16-16-39-37-39-1 0-2 2 0 2M26 99c-12 1-21 11-21 24 0 16 14 24 28 30l2-1c-10-5-21-10-26-21-5-13 3-29 16-31 2 0 3-2 1-1"/><path fill="#373535" d="M18 143l-13-8c-4-2-1-15-1-18 2-6 6-12 10-17h5l3-1-2 1h1l2-1h-9c-4 1-7 7-9 10-4 7-5 15-4 23 1 6 10 9 14 12l3-1M471 384c7 9 13 17 23 23l2-1c-9-6-16-14-22-23l-3 1M453 525c5 26 17 51 31 74 0 1 3 0 2-1-13-23-25-47-31-74l-2 1"/></g></g></svg>